<svg width="100%" height="160" viewBox="0 0 1200 160" xmlns="http://www.w3.org/2000/svg" preserveAspectRatio="none" role="img" aria-label="Footer">
  <defs>
    <linearGradient id="bgF" x1="0" y1="0" x2="1" y2="1">
      <stop offset="0%" stop-color="#121b35"/>
      <stop offset="100%" stop-color="#0a0f1f"/>
    </linearGradient>

    <!-- Top fade to avoid hard edge -->
    <linearGradient id="fadeTop" x1="0" y1="1" x2="0" y2="0">
      <stop offset="0%" stop-color="white" stop-opacity="1"/>
      <stop offset="70%" stop-color="white" stop-opacity="1"/>
      <stop offset="100%" stop-color="black" stop-opacity="0"/>
    </linearGradient>
    <linearGradient id="fadeXf" x1="0" y1="0" x2="1" y2="0">
      <stop offset="0%" stop-color="black" stop-opacity="0"/>
      <stop offset="10%" stop-color="white" stop-opacity="1"/>
      <stop offset="90%" stop-color="white" stop-opacity="1"/>
      <stop offset="100%" stop-color="black" stop-opacity="0"/>
    </linearGradient>
    <mask id="softTop">
      <g>
        <rect width="1200" height="160" fill="url(#fadeTop)"/>
        <rect width="1200" height="160" fill="url(#fadeXf)"/>
      </g>
    </mask>

    <filter id="glowF">
      <feGaussianBlur stdDeviation="2" result="b"/>
      <feMerge>
        <feMergeNode in="b"/>
        <feMergeNode in="SourceGraphic"/>
      </feMerge>
    </filter>

    <linearGradient id="shineF" x1="0" y1="0" x2="1" y2="0">
      <stop offset="0%" stop-color="#00eaff" stop-opacity="0"/>
      <stop offset="50%" stop-color="#00eaff" stop-opacity="0.2"/>
      <stop offset="100%" stop-color="#00eaff" stop-opacity="0"/>
    </linearGradient>
  </defs>

  <g mask="url(#softTop)">
    <rect width="1200" height="160" fill="url(#bgF)"/>
    <!-- double neon waves -->
    <g stroke="#00eaff" fill="none" stroke-linecap="round" opacity="0.55">
      <path d="M0,40 C150,70 300,10 450,40 C600,70 750,10 900,40 C1050,70 1200,10 1350,40" stroke-width="2" stroke-dasharray="10 12">
        <animate attributeName="stroke-dashoffset" values="0;900" dur="16s" repeatCount="indefinite"/>
      </path>
      <path d="M0,80 C120,110 240,50 360,80 C480,110 600,50 720,80 C840,110 960,50 1080,80 1200,110 1320,50 1440,80" stroke-width="1.6" stroke-dasharray="8 10" opacity="0.35">
        <animate attributeName="stroke-dashoffset" values="0;-700" dur="12s" repeatCount="indefinite"/>
      </path>
    </g>

    <!-- moving shine -->
    <rect x="1200" y="0" width="500" height="160" fill="url(#shineF)" filter="url(#glowF)" opacity="0.3">
      <animate attributeName="x" values="1200;-500" dur="9s" repeatCount="indefinite"/>
    </rect>
  </g>
</svg>
